<svg width="35" height="42" viewBox="0 0 35 42" fill="none" xmlns="http://www.w3.org/2000/svg">
<path d="M34.8607 33.5847C32.6534 29.045 31.7955 24.2196 31.8265 19.1919C31.8394 17.1289 31.8329 15.0581 31.6807 13.0029C31.5478 11.1982 30.8873 9.52277 29.9766 7.91646C29.3922 8.63545 28.8929 9.34922 28.2905 9.96121C27.8157 10.4427 27.7448 10.8081 28.0363 11.4566C29.1793 13.9907 28.0518 16.5756 25.4407 17.493C24.7635 17.7318 24.0346 17.8192 23.3238 17.9784C23.3534 19.8939 23.3547 19.8939 25.0008 20.853C25.9374 21.3985 26.8714 21.9491 27.897 22.5494C26.8391 23.1483 25.9051 23.7211 24.9337 24.2183C23.7791 24.8094 22.9342 25.6928 22.2814 26.802C21.0649 28.8715 20.2896 31.125 19.5865 33.4072C19.0356 35.1988 18.5235 37.0022 17.9378 38.9947C17.7159 38.2536 17.5611 37.6964 17.3805 37.147C16.4826 34.4094 15.6441 31.6509 14.6559 28.9472C13.8148 26.6441 12.4538 24.7272 10.0878 23.7368C9.51633 23.498 8.99515 23.1366 8.45332 22.8234C8.31787 22.7451 8.19918 22.6407 8.02632 22.5141C9.10093 21.8865 10.0762 21.2419 11.1147 20.7317C12.0655 20.2632 12.6937 19.6891 12.5105 18.5238C12.4822 18.3411 12.557 18.1428 12.5905 17.9027C12.357 17.8844 12.1467 17.8701 11.9378 17.8505C10.8438 17.7474 9.84142 17.3964 8.97451 16.6996C7.36839 15.4078 6.95945 13.3291 7.87409 11.2752C7.98246 11.0312 8.09727 10.6254 7.98117 10.4714C7.33485 9.61411 6.61758 8.8103 5.88225 7.93734C4.87472 9.73546 4.21163 11.6262 4.10843 13.6671C4.01297 15.5539 4.03748 17.4486 4.04006 19.3407C4.04651 24.3866 3.19378 29.2382 0.901361 33.7726C0.87298 33.8287 0.891041 33.9096 0.883301 34.0519C2.42878 32.794 3.91105 31.5896 5.42041 30.3617C6.56082 32.2289 7.65865 34.0284 8.77455 35.8578C9.98075 34.7134 11.1199 33.633 12.299 32.5147C14.1863 35.6073 16.0401 38.645 17.9326 41.7467C19.8367 38.6241 21.6815 35.6007 23.5611 32.5186C24.7622 33.6539 25.9 34.7291 27.0881 35.8526C28.2285 33.9892 29.3302 32.1898 30.4461 30.3669C31.9503 31.5882 33.4003 32.7639 35 34.0636C34.92 33.7713 34.9033 33.6708 34.8607 33.5847ZM5.30173 3.86743C7.72187 7.93473 11.2011 10.8303 15.2816 13.0485C15.4415 13.136 15.7473 13.0994 15.9137 13.0003C17.2618 12.1899 18.5867 12.1991 19.9438 12.9846C20.1347 13.0955 20.5024 13.1125 20.6791 12.999C22.1988 12.0216 23.7624 11.0938 25.1776 9.97686C27.4068 8.21659 29.3702 6.17706 30.7029 3.60123C30.8564 3.30503 30.9699 2.98925 31.1028 2.6813C31.0757 2.66955 31.0473 2.6565 31.0202 2.64476C30.6551 2.9775 30.3158 3.34809 29.9172 3.63386C29.5018 3.93267 29.04 4.17408 28.5781 4.3959C28.2105 4.57076 27.8905 4.53161 27.5422 4.20148C22.0208 -1.02717 13.9502 -1.06762 8.42623 4.11144C7.98246 4.5277 7.57738 4.61121 7.11812 4.31892C6.45117 3.89483 5.82162 3.41203 5.18304 2.94227C5.0463 2.8418 4.94568 2.69173 4.82699 2.56516C4.78313 2.7348 4.81151 2.83527 4.85537 2.93053C4.99986 3.245 5.12499 3.57122 5.30173 3.86743ZM17.9391 31.476C19.064 27.9385 19.9748 24.491 23.3379 22.5102C22.7419 22.1618 22.1833 21.9074 21.7163 21.5368C21.4532 21.328 21.239 20.9444 21.181 20.6077C21.0868 20.0583 21.1694 19.4803 21.1242 18.9179C21.003 17.4395 20.5321 16.1215 19.3233 15.1716C18.4345 14.4735 17.445 14.39 16.6181 15.1533C16.0195 15.7053 15.4209 16.406 15.1732 17.1589C14.8365 18.1845 14.7784 19.3198 14.7101 20.4159C14.674 21.0018 14.5501 21.4011 14.0031 21.6607C13.5219 21.8904 13.0756 22.197 12.5325 22.518C15.9085 24.4897 16.8038 27.9542 17.9391 31.476ZM25.6175 14.7997C26.3025 14.1394 26.4057 13.3421 25.94 12.3126C24.4655 13.2534 23.0283 14.1707 21.5912 15.0868C22.9419 15.8384 24.668 15.7157 25.6175 14.7997ZM10.2968 14.8388C11.2605 15.7275 13.0549 15.8319 14.256 15.075C12.8189 14.1564 11.3779 13.2351 9.93818 12.3139C9.45183 13.3187 9.56793 14.1668 10.2968 14.8388Z" fill="#ED1D24"/>
</svg>
