<svg width="42" height="36" viewBox="0 0 42 36" fill="none" xmlns="http://www.w3.org/2000/svg">
<path d="M41.4189 2.80939C41.1823 3.94221 40.9395 5.07391 40.7114 6.20897C38.9796 14.8377 37.2509 23.4665 35.5212 32.0952C35.3945 32.7268 35.2858 33.3629 35.1316 33.9855C34.6205 36.0387 33.2129 36.5602 31.5951 35.3015C28.8263 33.1471 26.0597 30.9883 23.293 28.8305C22.4841 28.2 22.4852 28.1978 21.7735 28.9227C20.4282 30.2904 19.0807 31.6569 17.7375 33.0291C17.3003 33.4764 16.7977 33.7405 16.1198 33.7338C16.1578 33.128 16.1916 32.5335 16.2317 31.9401C16.408 29.307 16.5791 26.6728 16.7724 24.0408C16.7871 23.8351 16.9139 23.5912 17.0606 23.4507C22.6499 18.0923 28.2487 12.744 33.8454 7.39348C33.894 7.34628 33.9605 7.31032 33.9911 7.25301C34.0999 7.04622 34.196 6.83269 34.2974 6.62142C34.0566 6.57084 33.8042 6.44947 33.5772 6.48768C33.3153 6.53263 33.0608 6.69334 32.8285 6.84843C25.8833 11.4674 18.9392 16.0885 12.0025 20.7221C11.6741 20.9412 11.4038 20.9929 11.0247 20.8648C8.14924 19.8916 5.26325 18.9532 2.38677 17.9844C2.00451 17.8552 1.6233 17.6608 1.29806 17.4113C0.75106 16.9921 0.689813 16.3909 1.18296 15.9031C1.5705 15.5199 2.03619 15.176 2.52405 14.9703C5.23052 13.8285 7.95389 12.7317 10.673 11.6247C19.9751 7.83515 29.2772 4.0456 38.5815 0.261673C38.8497 0.152662 39.1348 0.0605069 39.4189 0.0324112C40.441 -0.0687333 41.0789 0.426877 41.3386 1.48215C41.3587 1.56194 41.3904 1.63949 41.4168 1.71815C41.4189 2.0789 41.4189 2.44415 41.4189 2.80939Z" fill="#ED1D24"/>
</svg>
