<svg width="37" height="42" viewBox="0 0 37 42" fill="none" xmlns="http://www.w3.org/2000/svg">
<path d="M13.6727 41.2843C13.6727 41.2843 13.6444 37.0122 13.6265 35.6178C13.625 35.488 13.5997 35.3583 13.6012 35.3764C12.3247 35.3764 11.1034 35.4186 9.88506 35.3658C8.44604 35.3024 7.10544 34.9176 5.99747 33.902C5.30256 33.2637 4.98046 32.4156 4.60616 31.5856C3.97687 30.1928 3.2074 28.9131 1.83251 28.1118C1.52233 27.9307 1.28821 27.6002 1.05558 27.3075C0.805059 26.9906 0.927339 26.7068 1.30163 26.6842C1.8504 26.6525 2.43645 26.6133 2.95092 26.7672C4.3795 27.1958 5.44273 28.1389 6.19729 29.4367C6.67746 30.2652 7.27394 30.9941 8.09113 31.4981C9.88804 32.6073 11.7148 32.2436 13.5311 31.5524C13.6474 31.5087 13.7488 31.2974 13.7727 31.1495C13.965 29.98 14.4213 28.9463 15.2385 28.0846C15.2639 28.0575 15.2549 27.9956 15.243 28.0741C13.6563 27.6711 12.0548 27.3904 10.5427 26.8502C8.13437 25.99 6.14659 24.5232 4.973 22.1269C4.12301 20.393 3.6831 18.5474 3.52056 16.6264C3.25065 13.4558 3.76214 10.5162 5.91843 8.03683C6.02431 7.9146 6.08545 7.65353 6.03475 7.50564C5.37712 5.60725 5.47703 3.71792 6.02878 1.82103C6.37027 0.64699 6.58948 0.508157 7.7899 0.755642C7.82271 0.763187 7.85552 0.77526 7.88832 0.784314C9.79708 1.29437 11.5522 2.14095 13.212 3.21238C13.4267 3.35122 13.7652 3.4312 14.0053 3.37083C18.0987 2.32657 22.1846 2.32506 26.278 3.37234C26.5061 3.4312 26.8103 3.35423 27.031 3.24407C28.3373 2.58462 29.6123 1.86178 30.9306 1.23099C31.7448 0.841658 32.6186 0.577573 33.5461 0.717916C33.6863 0.739042 33.8817 0.849203 33.9279 0.966909C34.7168 3.02526 35.009 5.12737 34.3082 7.27325C34.1784 7.67013 34.2306 7.91912 34.4931 8.22546C35.5608 9.47194 36.2497 10.9176 36.5882 12.5323C36.9237 14.1364 36.8701 15.7541 36.6837 17.3658C36.4436 19.4392 35.8963 21.4297 34.7018 23.1621C33.0764 25.5207 30.6905 26.7144 28.0212 27.3995C27.0266 27.6545 26.0036 27.7919 24.9836 27.985C25.246 28.3366 25.5264 28.6596 25.7486 29.0187C26.5076 30.2516 26.6478 31.6369 26.6538 33.0434C26.6642 35.3522 26.6597 41.3477 26.6597 41.3477L13.6727 41.2843Z" fill="#ED1D24"/>
</svg>
