<svg width="60" height="34" viewBox="0 0 60 34" fill="none" xmlns="http://www.w3.org/2000/svg">
<path d="M17.0022 0.243164C7.62335 0.243164 0.0214844 7.74616 0.0214844 17.0001C0.0214844 26.254 7.62469 33.757 17.0022 33.757C26.3797 33.757 33.9829 26.254 33.9829 17.0001C33.9829 7.74616 26.3811 0.243164 17.0022 0.243164ZM43.861 1.28573C39.1736 1.28573 35.3741 8.32136 35.3741 17.0001C35.3741 25.6788 39.1736 32.7144 43.861 32.7144C48.5484 32.7144 52.348 25.6788 52.348 17.0001C52.348 8.32136 48.5484 1.28573 43.861 1.28573ZM56.9005 2.88752C55.2611 2.88752 53.9334 9.20548 53.9334 17.0001C53.9334 24.7947 55.2625 31.1126 56.9005 31.1126C58.5399 31.1126 59.8676 24.7947 59.8676 17.0001C59.8676 9.20548 58.5399 2.88752 56.9005 2.88752Z" fill="#ED1D24"/>
</svg>
