<svg width="42" height="34" viewBox="0 0 42 34" fill="none" xmlns="http://www.w3.org/2000/svg">
<path d="M41.0058 4.33202C39.5125 4.99971 37.9085 5.44903 36.2248 5.6517C37.9443 4.61481 39.2629 2.97306 39.8839 1.01554C38.2767 1.97545 36.4948 2.67299 34.5973 3.05004C33.0791 1.42087 30.9164 0.402832 28.5228 0.402832C23.926 0.402832 20.1998 4.15606 20.1998 8.78279C20.1998 9.43949 20.2747 10.0805 20.4151 10.6916C13.498 10.3428 7.36574 7.00594 3.25884 1.9346C2.54419 3.17259 2.13382 4.61166 2.13382 6.14972C2.13382 9.05615 3.60212 11.6217 5.83502 13.1236C4.47125 13.0796 3.18707 12.7026 2.06516 12.0757C2.06516 12.1118 2.06516 12.1448 2.06516 12.181C2.06516 16.2421 4.93312 19.6293 8.74199 20.3975C8.0445 20.5892 7.30801 20.6913 6.54811 20.6913C6.0129 20.6913 5.49017 20.6379 4.98305 20.5421C6.04255 23.8711 9.11648 26.2952 12.7584 26.3628C9.91071 28.611 6.32185 29.9511 2.42092 29.9511C1.74996 29.9511 1.08681 29.9118 0.43457 29.8332C4.11861 32.2102 8.49233 33.5975 13.1937 33.5975C28.5041 33.5975 36.8739 20.828 36.8739 9.7537C36.8739 9.39079 36.8661 9.02945 36.8505 8.66968C38.478 7.48668 39.8901 6.01147 41.0058 4.33202Z" fill="#ED1D24"/>
</svg>
